<?xml version="1.0" encoding="UTF-8"?>
<svg id="Capa_2" data-name="Capa 2" xmlns="http://www.w3.org/2000/svg" xmlns:xlink="http://www.w3.org/1999/xlink" viewBox="0 0 46.5 46.5">
  <defs>
    <style>
      .cls-1 {
        fill: #fff;
      }

      .cls-2 {
        fill: url(#Degradado_sin_nombre_389-2);
      }

      .cls-3 {
        fill: url(#Degradado_sin_nombre_389);
        stroke: #fff;
        stroke-miterlimit: 10;
      }

      .cls-4 {
        fill: gray;
        opacity: .29;
      }
    </style>
    <linearGradient id="Degradado_sin_nombre_389" data-name="Degradado sin nombre 389" x1="33.17" y1="31.65" x2="5.17" y2="7.65" gradientUnits="userSpaceOnUse">
      <stop offset=".2" stop-color="#f86400"/>
      <stop offset=".2" stop-color="#f87500"/>
      <stop offset=".42" stop-color="#f88000"/>
      <stop offset=".72" stop-color="#f8a01c"/>
      <stop offset="1" stop-color="#f8bc1c"/>
    </linearGradient>
    <linearGradient id="Degradado_sin_nombre_389-2" data-name="Degradado sin nombre 389" x1="28.08" y1="24.47" x2="25.59" y2="22.34" xlink:href="#Degradado_sin_nombre_389"/>
  </defs>
  <g id="Capa_1-2" data-name="Capa 1">
    <g>
      <rect class="cls-4" x="2.5" y="2.5" width="44" height="44" rx="6.46" ry="6.46"/>
      <rect class="cls-3" x=".5" y=".5" width="44" height="44" rx="6.46" ry="6.46"/>
      <g>
        <circle class="cls-1" cx="14.76" cy="37.58" r="1.92"/>
        <circle class="cls-1" cx="26.29" cy="37.58" r="1.92"/>
        <g>
          <path class="cls-1" d="m11.34,15.74v.22c0-.08,0-.15.01-.22h-.01Z"/>
          <path class="cls-1" d="m30.11,20.67c1.14-1.96,1.94-3.89,1.94-5.43,0-5.38-4.36-9.74-9.74-9.74-1.51,0-2.94.35-4.21.97-3.27,1.57-5.53,4.9-5.53,8.77,0,.16,0,.33.03.5.55,5.48,9.71,14.94,9.71,14.94,0,0,.02,0,.03,0-.57.62-.93.98-.93.98,0,0-10.06-10.13-10.06-15.69v16.75c0,.71.58,1.29,1.3,1.29h9.1s3.29.1,6.16-.29c4.07-.99,5.76-4.48,5.76-7.08s-1.44-4.8-3.54-5.96Z"/>
        </g>
        <path class="cls-2" d="m32.06,14.93c.03,1.71-.57,3.35-1.29,4.87-.73,1.53-1.63,2.97-2.62,4.34-2.03,2.71-4.28,5.25-6.79,7.51,1.19-1.2,2.33-2.44,3.44-3.7,1.11-1.27,2.16-2.59,3.14-3.96,1.01-1.35,1.92-2.77,2.68-4.27.73-1.5,1.38-3.1,1.44-4.79Z"/>
      </g>
    </g>
  </g>
</svg>