<?xml version="1.0" encoding="UTF-8"?>
<svg id="Capa_2" data-name="Capa 2" xmlns="http://www.w3.org/2000/svg" xmlns:xlink="http://www.w3.org/1999/xlink" viewBox="0 0 46.5 46.5">
  <defs>
    <style>
      .cls-1 {
        fill: #fff;
      }

      .cls-2 {
        fill: url(#Degradado_sin_nombre_377);
        stroke: #fff;
        stroke-miterlimit: 10;
      }

      .cls-3 {
        fill: gray;
        opacity: .29;
      }
    </style>
    <linearGradient id="Degradado_sin_nombre_377" data-name="Degradado sin nombre 377" x1="8.93" y1="12.43" x2="29.59" y2="27.76" gradientUnits="userSpaceOnUse">
      <stop offset="0" stop-color="#f88100"/>
      <stop offset=".3" stop-color="#f85900"/>
      <stop offset=".71" stop-color="#fa5206"/>
      <stop offset=".99" stop-color="#e94306"/>
    </linearGradient>
  </defs>
  <g id="Capa_1-2" data-name="Capa 1">
    <g>
      <circle class="cls-3" cx="24.5" cy="24.5" r="22"/>
      <circle class="cls-2" cx="22.5" cy="22.5" r="22"/>
      <path class="cls-1" d="m34.34,16.04h-.92v-1.23c0-3.21-2.6-5.81-5.81-5.81h-10.22c-3.21,0-5.81,2.6-5.81,5.81v1.23h-.92c-.68,0-1.24.56-1.24,1.24v3.54c0,.68.56,1.24,1.24,1.24h.92v8.39c0,1.01.82,1.83,1.83,1.83v1.83c0,1.04.85,1.89,1.89,1.89h1.61c1.04,0,1.89-.85,1.89-1.89v-1.83h7.15v1.83c0,1.04.85,1.89,1.89,1.89h1.61c1.04,0,1.89-.85,1.89-1.89v-1.83h.24c1.01,0,1.83-.82,1.83-1.83v-8.39h.92c.68,0,1.24-.56,1.24-1.24v-3.54c0-.68-.56-1.24-1.24-1.24Zm-19.14,13.08c-.99,0-1.8-.81-1.8-1.8s.81-1.8,1.8-1.8,1.8.81,1.8,1.8-.81,1.8-1.8,1.8Zm.86-6.62c-.9,0-1.64-.74-1.64-1.64v-5.96c0-.9.74-1.64,1.64-1.64h12.88c.9,0,1.64.74,1.64,1.64v5.96c0,.9-.74,1.64-1.64,1.64h-12.88Zm13.57,6.62c-.99,0-1.8-.81-1.8-1.8s.81-1.8,1.8-1.8,1.8.81,1.8,1.8-.81,1.8-1.8,1.8Z"/>
    </g>
  </g>
</svg>