<?xml version="1.0" encoding="UTF-8"?>
<svg xmlns="http://www.w3.org/2000/svg" xmlns:xlink="http://www.w3.org/1999/xlink" viewBox="0 0 111.32 60.13">
  <defs>
    <style>
      .cls-1 {
        fill: #fa5206;
      }

      .cls-2 {
        fill: url(#Degradado_sin_nombre_226);
      }

      .cls-3 {
        fill: url(#Degradado_sin_nombre_268);
      }

      .cls-4 {
        isolation: isolate;
      }

      .cls-5 {
        fill: url(#Degradado_sin_nombre_268-2);
      }

      .cls-6 {
        fill: url(#Degradado_sin_nombre_228-3);
      }

      .cls-7 {
        fill: url(#Degradado_sin_nombre_228);
      }

      .cls-8 {
        fill: url(#Degradado_sin_nombre_320);
      }

      .cls-9 {
        fill: url(#Degradado_sin_nombre_228-2);
      }

      .cls-10 {
        fill: #f8a01c;
      }

      .cls-11 {
        mix-blend-mode: multiply;
      }
    </style>
    <linearGradient id="Degradado_sin_nombre_268" data-name="Degradado sin nombre 268" x1="20.2" y1="46.95" x2="20.87" y2="28.62" gradientUnits="userSpaceOnUse">
      <stop offset="0" stop-color="#f8811a"/>
      <stop offset="1" stop-color="#fb540a"/>
    </linearGradient>
    <linearGradient id="Degradado_sin_nombre_268-2" data-name="Degradado sin nombre 268" x1="19.36" y1="50.46" x2="19.36" y2="17.88" xlink:href="#Degradado_sin_nombre_268"/>
    <linearGradient id="Degradado_sin_nombre_320" data-name="Degradado sin nombre 320" x1="16.85" y1="22.62" x2="5.66" y2="32.06" gradientUnits="userSpaceOnUse">
      <stop offset="0" stop-color="#f8811a"/>
      <stop offset=".65" stop-color="#ff5e0a"/>
      <stop offset="1" stop-color="#fb540a"/>
    </linearGradient>
    <linearGradient id="Degradado_sin_nombre_226" data-name="Degradado sin nombre 226" x1="19.98" y1=".4" x2="19.98" y2="27.46" gradientUnits="userSpaceOnUse">
      <stop offset=".03" stop-color="#fa5b04"/>
      <stop offset=".99" stop-color="#f8a91c"/>
    </linearGradient>
    <linearGradient id="Degradado_sin_nombre_228" data-name="Degradado sin nombre 228" x1="21.92" y1="16.15" x2="37.58" y2="31.82" gradientUnits="userSpaceOnUse">
      <stop offset="0" stop-color="#fff"/>
      <stop offset="1" stop-color="#f8bd1b"/>
    </linearGradient>
    <linearGradient id="Degradado_sin_nombre_228-2" data-name="Degradado sin nombre 228" x1="17.81" y1="20.26" x2="33.48" y2="35.93" xlink:href="#Degradado_sin_nombre_228"/>
    <linearGradient id="Degradado_sin_nombre_228-3" data-name="Degradado sin nombre 228" x1="17.53" y1="20.53" x2="33.2" y2="36.2" xlink:href="#Degradado_sin_nombre_228"/>
  </defs>
  <g class="cls-4">
    <g id="Capa_2" data-name="Capa 2">
      <g id="Capa_1-2" data-name="Capa 1">
        <g>
          <g class="cls-11">
            <g>
              <path class="cls-1" d="m62.05,25.09c.71.9,1.06,1.92,1.06,3.08,0,1.05-.26,1.96-.77,2.76-.51.79-1.25,1.41-2.23,1.86-.97.45-2.12.67-3.44.67h-8.43V13.92h8.06c1.33,0,2.47.21,3.43.64.96.43,1.69,1.03,2.18,1.79.5.77.74,1.63.74,2.6,0,1.14-.3,2.09-.91,2.86-.61.77-1.41,1.31-2.42,1.62,1.1.21,2.01.76,2.72,1.65Zm-9.88-3.11h3.58c.93,0,1.65-.21,2.16-.63s.76-1.02.76-1.81-.25-1.39-.76-1.82c-.5-.43-1.22-.64-2.16-.64h-3.58v4.9Zm6.17,7.62c.53-.45.8-1.08.8-1.9s-.28-1.5-.84-1.97c-.56-.48-1.32-.71-2.27-.71h-3.86v5.26h3.95c.95,0,1.69-.22,2.23-.67Z"/>
              <path class="cls-1" d="m80.33,17.95v15.51h-3.95v-1.96c-.5.67-1.16,1.2-1.97,1.58-.81.38-1.69.57-2.65.57-1.21,0-2.29-.26-3.22-.77-.93-.51-1.67-1.27-2.2-2.27-.53-1-.8-2.19-.8-3.57v-9.1h3.92v8.54c0,1.23.31,2.18.92,2.84.62.66,1.46.99,2.52.99s1.93-.33,2.55-.99.92-1.61.92-2.84v-8.54h3.95Z"/>
              <path class="cls-1" d="m86.16,33.03c-1.01-.46-1.81-1.08-2.39-1.86-.59-.78-.91-1.65-.97-2.6h3.95c.07.6.37,1.09.88,1.48.51.39,1.15.59,1.92.59s1.33-.15,1.75-.45c.42-.3.63-.68.63-1.15,0-.5-.26-.88-.77-1.13-.51-.25-1.33-.53-2.45-.83-1.16-.28-2.11-.57-2.84-.87-.74-.3-1.37-.76-1.9-1.37s-.8-1.45-.8-2.49c0-.86.25-1.64.74-2.35.49-.71,1.2-1.27,2.13-1.68.92-.41,2.01-.62,3.26-.62,1.85,0,3.32.46,4.42,1.39s1.71,2.17,1.82,3.74h-3.75c-.06-.62-.31-1.11-.77-1.47-.46-.36-1.07-.55-1.83-.55-.71,0-1.26.13-1.64.39-.38.26-.57.63-.57,1.09,0,.52.26.92.78,1.19s1.33.55,2.44.83c1.12.28,2.04.57,2.77.87.73.3,1.36.76,1.89,1.39s.81,1.45.83,2.48c0,.9-.25,1.7-.74,2.41-.49.71-1.2,1.27-2.13,1.67-.92.4-2,.6-3.23.6s-2.41-.23-3.42-.69Z"/>
            </g>
            <g>
              <path class="cls-10" d="m60.96,36.47v14h-3.56v-1.77c-.46.61-1.05,1.08-1.78,1.43-.73.35-1.53.52-2.39.52-1.09,0-2.06-.23-2.91-.69-.84-.46-1.5-1.15-1.98-2.05-.48-.9-.72-1.97-.72-3.22v-8.21h3.54v7.71c0,1.11.28,1.97.83,2.56.56.6,1.31.9,2.27.9s1.74-.3,2.3-.9c.56-.6.83-1.45.83-2.56v-7.71h3.56Z"/>
              <path class="cls-10" d="m75.74,37.85c1.03,1.05,1.54,2.52,1.54,4.41v8.21h-3.54v-7.73c0-1.11-.28-1.97-.83-2.56-.56-.6-1.31-.9-2.27-.9s-1.75.3-2.31.9c-.56.6-.85,1.45-.85,2.56v7.73h-3.54v-14h3.54v1.74c.47-.61,1.07-1.08,1.81-1.43.73-.35,1.54-.52,2.41-.52,1.67,0,3.01.53,4.04,1.58Z"/>
              <path class="cls-10" d="m80.07,39.65c.56-1.09,1.33-1.94,2.3-2.53.97-.59,2.05-.88,3.25-.88,1.04,0,1.96.21,2.74.63.78.42,1.41.95,1.88,1.59v-2h3.56v14h-3.56v-2.05c-.46.66-1.08,1.2-1.88,1.63-.8.43-1.72.64-2.77.64-1.18,0-2.25-.3-3.22-.91-.97-.61-1.74-1.46-2.3-2.56-.56-1.1-.85-2.37-.85-3.8s.28-2.67.85-3.76Zm9.66,1.6c-.34-.61-.79-1.09-1.36-1.42-.57-.33-1.19-.49-1.84-.49s-1.26.16-1.82.48c-.56.32-1.01.79-1.35,1.4-.35.61-.52,1.34-.52,2.19s.17,1.58.52,2.21c.34.63.8,1.12,1.36,1.45.56.34,1.17.51,1.81.51s1.27-.16,1.84-.49c.57-.33,1.03-.8,1.36-1.41s.51-1.35.51-2.21-.17-1.6-.51-2.21Z"/>
              <path class="cls-10" d="m102.18,36.88c.8-.42,1.71-.63,2.74-.63,1.2,0,2.28.29,3.25.88s1.74,1.43,2.3,2.51c.56,1.09.85,2.35.85,3.78s-.28,2.7-.85,3.8c-.56,1.1-1.33,1.96-2.3,2.56s-2.05.91-3.25.91c-1.04,0-1.96-.21-2.74-.62s-1.41-.95-1.88-1.6v2h-3.54v-18.7h3.54v6.75c.46-.67,1.08-1.22,1.88-1.64Zm5,4.36c-.34-.61-.8-1.08-1.36-1.4-.56-.32-1.17-.48-1.83-.48s-1.24.16-1.81.49-1.02.8-1.36,1.43c-.35.62-.52,1.36-.52,2.2s.17,1.58.52,2.2c.34.62.8,1.1,1.36,1.43.56.33,1.17.49,1.81.49s1.27-.17,1.83-.51c.56-.34,1.02-.82,1.36-1.44.35-.62.52-1.36.52-2.22s-.17-1.57-.52-2.19Z"/>
            </g>
          </g>
          <g>
            <path class="cls-3" d="m28.28,26.13H3.16c-1.34,0-2.43,1.09-2.43,2.43v19.89c0,.87.46,1.63,1.15,2.06,0-.12,29.04-.07,29.03.08,5.55-1.21,9.74-6.18,9.74-12.08h0c0-6.8-5.57-12.37-12.37-12.37Z"/>
            <path class="cls-5" d="m26.66,27.96h-15.18v-9.31H0v30.92c0,1.3,1.06,2.35,2.37,2.35h16.58s6,.18,11.21-.52c4.94-1.5,8.57-6.08,8.57-11.46h0c0-6.59-5.43-11.98-12.07-11.98Z"/>
            <path class="cls-8" d="m36.66,19.06c0,10.12-18.33,28.59-18.33,28.59,0,0-18.33-18.47-18.33-28.59S8.21.73,18.33.73s18.33,8.21,18.33,18.33Z"/>
            <g>
              <path class="cls-2" d="m37.73,17.75c0,9.8-17.75,28.14-17.75,28.14,0,0-17.75-18.33-17.75-28.14S10.18,0,19.98,0s17.75,7.95,17.75,17.75Z"/>
              <g>
                <path class="cls-7" d="m19.99,17.99l.18.47.23.42.29.39.34.32.36.27.42.19.44.12.47.04.46-.04.44-.12.4-.19.39-.27.33-.32.28-.39.24-.42.18-.47.1-.51.05-.53-.05-.52-.1-.51-.18-.47-.24-.44-.28-.38-.33-.33-.39-.26-.4-.21-.44-.12-.46-.04-.47.04-.44.12-.42.21-.36.26-.34.33-.29.38-.23.44-.18.47-.11.51-.02.52.02.53.11.51Zm1.35-2.8l2.79.14h0s.03,3.43.03,3.43l-2.82-.08v-3.49Z"/>
                <path class="cls-9" d="m13.18,18.9l.22.5.29.39.34.26.39.11.39-.07.35-.22.29-.37.27-.48.19-.59.14-.67.06-.75h0s0-.72,0-.72l-.1-.7-.18-.61-.25-.52-.28-.4-.33-.26-.35-.09-.34.07-.33.22-.3.37-.26.48-.22.59-.14.65-.08.74v.74l.06.69.15.62Zm.44-1.37v-2.14l1.76-.12v3.34s-1.75.07-1.75.07v-1.16s0,0,0,0Z"/>
                <path class="cls-6" d="m19.6,5.4v.03s-.01-.01-.01-.01l-11.71,7.38.68,1.1.51-.32,2.02-.35v10.58l-2.75.24v7.61c.41.6.83,1.2,1.26,1.79v-8.27l7-.54v17.53c.46.53.89,1.01,1.28,1.44v-18.96l11.49.58v9.58c.43-.58.87-1.17,1.29-1.76v-9.04l-2.7-.15v-10.8l3.11.2.86.48.16-.26v-1.13l-12.5-6.96Zm-3,17.93l-4.23.38v-10.68l4.23-.69v10.99Zm.26-12.36l-4.95.83,6.34-3.97-1.39,3.14Zm9.7,12.81l-8.67-.47v-10.92l8.67.58v10.82Zm-8.39-12.69l1.73-4.01,8.53,4.72-10.25-.71Z"/>
              </g>
            </g>
          </g>
          <circle class="cls-1" cx="6.23" cy="56.63" r="3.5"/>
          <circle class="cls-1" cx="27.23" cy="56.63" r="3.5"/>
        </g>
      </g>
    </g>
  </g>
</svg>