<?xml version="1.0" encoding="UTF-8"?>
<svg id="Capa_2" data-name="Capa 2" xmlns="http://www.w3.org/2000/svg" xmlns:xlink="http://www.w3.org/1999/xlink" viewBox="0 0 33.38 36.38">
  <defs>
    <style>
      .cls-1 {
        fill: #fff;
      }

      .cls-2 {
        fill: url(#Degradado_sin_nombre_389-2);
      }

      .cls-3 {
        fill: url(#Degradado_sin_nombre_389);
        stroke: #fff;
        stroke-miterlimit: 10;
      }

      .cls-4 {
        fill: gray;
        opacity: .29;
      }
    </style>
    <linearGradient id="Degradado_sin_nombre_389" data-name="Degradado sin nombre 389" x1="23.13" y1="22.1" x2="4.26" y2="5.93" gradientUnits="userSpaceOnUse">
      <stop offset=".2" stop-color="#f86400"/>
      <stop offset=".2" stop-color="#f87500"/>
      <stop offset=".42" stop-color="#f88000"/>
      <stop offset=".72" stop-color="#f8a01c"/>
      <stop offset="1" stop-color="#f8bc1c"/>
    </linearGradient>
    <linearGradient id="Degradado_sin_nombre_389-2" data-name="Degradado sin nombre 389" x1="19.86" y1="17.32" x2="18.11" y2="15.83" xlink:href="#Degradado_sin_nombre_389"/>
  </defs>
  <g id="Capa_1-2" data-name="Capa 1">
    <g>
      <path class="cls-4" d="m26.92,33.38h-6.49l-2.49,3-2.49-3h-6.49c-3.56,0-6.46-2.91-6.46-6.46V8.96c0-3.56,2.91-6.46,6.46-6.46h17.95c3.56,0,6.46,2.91,6.46,6.46v17.95c0,3.56-2.91,6.46-6.46,6.46Z"/>
      <path class="cls-3" d="m24.92,31.38h-6.49l-2.49,3-2.49-3h-6.49c-3.56,0-6.46-2.91-6.46-6.46V6.96C.5,3.41,3.41.5,6.96.5h17.95c3.56,0,6.46,2.91,6.46,6.46v17.95c0,3.56-2.91,6.46-6.46,6.46Z"/>
      <g>
        <circle class="cls-1" cx="10.51" cy="26.52" r="1.35"/>
        <circle class="cls-1" cx="18.6" cy="26.52" r="1.35"/>
        <g>
          <path class="cls-1" d="m8.11,11.19v.16c0-.05,0-.1,0-.16h0Z"/>
          <path class="cls-1" d="m21.28,14.66c.8-1.38,1.36-2.73,1.36-3.81,0-3.78-3.06-6.84-6.84-6.84-1.06,0-2.06.25-2.96.68-2.29,1.1-3.88,3.44-3.88,6.16,0,.11,0,.23.02.35.39,3.84,6.82,10.49,6.82,10.49,0,0,.02,0,.02,0-.4.43-.66.69-.66.69,0,0-7.06-7.11-7.06-11.01v11.75c0,.5.41.9.91.9h6.39s2.31.07,4.32-.2c2.86-.7,4.04-3.14,4.04-4.97s-1.01-3.37-2.49-4.18Z"/>
        </g>
        <path class="cls-2" d="m22.65,10.63c.02,1.2-.4,2.35-.91,3.42-.52,1.07-1.15,2.09-1.84,3.05-1.42,1.9-3,3.68-4.76,5.27.83-.84,1.63-1.71,2.42-2.6.78-.89,1.51-1.82,2.2-2.78.71-.94,1.35-1.94,1.88-3,.51-1.05.97-2.17,1.01-3.36Z"/>
      </g>
    </g>
  </g>
</svg>